<svg xmlns="http://www.w3.org/2000/svg" width="144" height="32" fill="none"><path fill="#000" d="M43.992 22.245c-1.253 0-2.328-.275-3.227-.825a5.509 5.509 0 0 1-2.066-2.279c-.48-.974-.719-2.096-.719-3.365 0-1.274.245-2.398.735-3.373.49-.98 1.182-1.742 2.075-2.287.898-.55 1.96-.825 3.185-.825 1.018 0 1.92.188 2.704.564.79.37 1.418.896 1.886 1.576.469.675.735 1.465.8 2.369H46.54a2.702 2.702 0 0 0-.817-1.511c-.425-.409-.994-.613-1.707-.613-.604 0-1.135.163-1.593.49-.457.322-.814.784-1.07 1.389-.25.604-.375 1.328-.375 2.172 0 .855.125 1.59.375 2.206.25.61.602 1.08 1.054 1.413.457.326.994.49 1.609.49.436 0 .825-.082 1.168-.245.348-.17.64-.412.874-.727.234-.316.395-.7.482-1.152h2.826c-.071.888-.332 1.674-.784 2.36-.452.681-1.068 1.215-1.846 1.601-.779.382-1.694.572-2.744.572ZM51.334 22V9.455H54.2v2.09h.131c.229-.724.62-1.282 1.176-1.674.561-.397 1.2-.596 1.92-.596.163 0 .345.008.547.024.207.011.378.03.514.058v2.72a3.117 3.117 0 0 0-.596-.115 5.49 5.49 0 0 0-.776-.057c-.539 0-1.023.117-1.454.351a2.57 2.57 0 0 0-1.004.956c-.245.408-.368.879-.368 1.413V22h-2.956Zm13.614.245c-1.225 0-2.286-.27-3.185-.809-.898-.539-1.595-1.293-2.09-2.262-.49-.97-.736-2.102-.736-3.398 0-1.296.245-2.43.735-3.406.496-.974 1.193-1.731 2.091-2.27.898-.54 1.96-.809 3.185-.809 1.226 0 2.287.27 3.186.809.898.539 1.593 1.296 2.082 2.27.496.975.744 2.11.744 3.406 0 1.296-.248 2.429-.743 3.398a5.436 5.436 0 0 1-2.083 2.262c-.899.54-1.96.809-3.186.809Zm.017-2.369c.664 0 1.22-.182 1.666-.547.447-.37.779-.866.996-1.486.224-.621.335-1.313.335-2.075 0-.768-.111-1.462-.335-2.083-.217-.626-.55-1.124-.996-1.494-.447-.37-1.002-.556-1.666-.556-.68 0-1.247.185-1.7.556-.446.37-.78.868-1.004 1.494-.218.621-.326 1.315-.326 2.083 0 .762.108 1.454.326 2.075.223.62.558 1.116 1.005 1.486.452.365 1.018.547 1.699.547Zm17.96-7.105-2.695.294a2.167 2.167 0 0 0-.4-.768 1.987 1.987 0 0 0-.752-.58c-.316-.147-.703-.22-1.16-.22-.615 0-1.133.133-1.552.4-.414.267-.618.612-.612 1.037-.006.365.128.662.4.89.278.229.735.417 1.372.564l2.14.457c1.187.256 2.069.662 2.646 1.217.583.555.877 1.282.882 2.18a3.412 3.412 0 0 1-.694 2.092c-.452.599-1.08 1.067-1.887 1.405-.805.337-1.731.506-2.777.506-1.535 0-2.771-.321-3.708-.964-.936-.648-1.494-1.549-1.674-2.703l2.883-.278c.13.566.408.994.833 1.282.425.289.977.433 1.658.433.703 0 1.266-.144 1.69-.433.431-.288.646-.645.646-1.07 0-.359-.139-.656-.416-.89-.273-.234-.697-.414-1.275-.539l-2.14-.45c-1.203-.25-2.093-.672-2.67-1.265-.578-.6-.863-1.356-.858-2.27-.005-.774.204-1.444.629-2.01.43-.572 1.026-1.013 1.789-1.323.767-.316 1.652-.474 2.654-.474 1.47 0 2.627.313 3.471.94.85.626 1.375 1.472 1.577 2.54Zm12.163 0-2.695.294a2.165 2.165 0 0 0-.4-.768 1.987 1.987 0 0 0-.752-.58c-.316-.147-.703-.22-1.16-.22-.615 0-1.133.133-1.552.4-.414.267-.618.612-.612 1.037-.006.365.128.662.4.89.278.229.735.417 1.372.564l2.14.457c1.187.256 2.07.662 2.646 1.217.583.555.877 1.282.882 2.18a3.412 3.412 0 0 1-.694 2.092c-.452.599-1.08 1.067-1.887 1.405-.805.337-1.731.506-2.777.506-1.535 0-2.771-.321-3.708-.964-.936-.648-1.494-1.549-1.674-2.703L87.5 18.3c.13.566.409.994.833 1.282.425.289.978.433 1.658.433.703 0 1.266-.144 1.69-.433.431-.288.646-.645.646-1.07 0-.359-.139-.656-.416-.89-.273-.234-.697-.414-1.275-.539l-2.14-.45c-1.203-.25-2.093-.672-2.67-1.265-.577-.6-.863-1.356-.858-2.27-.005-.774.204-1.444.63-2.01.43-.572 1.026-1.013 1.788-1.323.767-.316 1.652-.474 2.654-.474 1.47 0 2.627.313 3.471.94.85.626 1.375 1.472 1.577 2.54ZM97.335 22V9.455h2.826v2.131h.147c.262-.719.695-1.28 1.299-1.682.604-.409 1.326-.613 2.164-.613.85 0 1.566.207 2.149.62a3.247 3.247 0 0 1 1.241 1.675h.131a3.425 3.425 0 0 1 1.405-1.666c.664-.42 1.451-.629 2.36-.629 1.154 0 2.096.365 2.826 1.095s1.094 1.794 1.094 3.193V22h-2.964v-7.963c0-.78-.207-1.348-.621-1.708-.414-.364-.92-.547-1.519-.547-.714 0-1.272.224-1.675.67-.397.441-.596 1.016-.596 1.723V22h-2.899v-8.086c0-.648-.196-1.165-.588-1.552-.387-.386-.893-.58-1.52-.58-.424 0-.811.11-1.159.327a2.279 2.279 0 0 0-.834.907c-.206.386-.31.838-.31 1.355V22h-2.957Zm20.182 0V9.455h2.957V22h-2.957Zm1.486-14.326c-.468 0-.871-.155-1.208-.466-.338-.315-.507-.694-.507-1.135 0-.446.169-.825.507-1.135.337-.316.74-.474 1.208-.474.474 0 .877.158 1.209.474.338.31.507.689.507 1.135 0 .441-.169.82-.507 1.135-.332.31-.735.466-1.209.466Zm7.008 6.975V22h-2.957V9.455h2.826v2.131h.147a3.591 3.591 0 0 1 1.38-1.674c.637-.414 1.424-.62 2.361-.62.866 0 1.62.184 2.262.555.648.37 1.149.906 1.503 1.609.359.702.536 1.554.531 2.556V22h-2.957v-7.53c0-.84-.217-1.495-.653-1.969-.43-.474-1.026-.71-1.789-.71-.517 0-.977.114-1.38.342a2.37 2.37 0 0 0-.939.973c-.224.424-.335.939-.335 1.543Zm16.863-5.194v2.287h-7.212V9.454h7.212Zm-5.431-3.006h2.956v11.778c0 .397.06.702.18.914a.971.971 0 0 0 .49.425c.202.076.425.114.67.114.185 0 .354-.013.506-.04.158-.028.278-.052.36-.074l.498 2.312a6.639 6.639 0 0 1-.678.18 5.554 5.554 0 0 1-1.062.114c-.74.021-1.407-.09-2.001-.335a3.117 3.117 0 0 1-1.413-1.16c-.343-.523-.512-1.176-.506-1.96V6.449Z"/><g clip-path="url(#a)"><path fill="url(#b)" d="M29.11 26.685s.288-.004.48.139c0 0 .572-1.164-1.484-3.234 0 0 .285-.128.658-.004 0 0-.058-1.773-2.193-3.395 0 0 .314-.115.47-.056 0 0-.828-1.584-2.985-2.43 0 0 .32-.183.726-.176 0 0-1.608-1.912-4.402-1.745 0 0 .147-.171.446-.278 0 0-.451-.306-1.526-.44-.572-.127-1.297-.16-1.297-.16.234-.007.723-.145 1.009-.23 1.18-.127 2.321-.432 2.872-1.095 0 0-.237.076-.576-.249 0 0 2.445-.235 4.229-2.579 0 0-.617.246-.985-.012 0 0 2.215-.888 2.742-2.51 0 0-.42.27-.91.212 0 0 1.354-.934 1.86-2.543 0 0-.417.222-.744.09 0 0 1.558-1.11 1.348-2.772 0 0-.245.377-.757.245 0 0 1.63-1.78.942-3.455 0 0-1.21-.156-2.305.883 0 0-.004-.289.139-.48 0 0-1.164-.573-3.234 1.483 0 0-.128-.284-.004-.658 0 0-1.773.058-3.395 2.193 0 0-.115-.314-.056-.47 0 0-1.584.828-2.43 2.985 0 0-.183-.32-.176-.726 0 0-1.912 1.608-1.745 4.402 0 0-.171-.147-.278-.445 0 0-.224.33-.372 1.098-.146.675-.214 1.621-.214 1.621.004-.503-.261-1.383-.368-1.719-.16-.955-.464-1.82-1.014-2.276 0 0 .076.237-.249.576 0 0-.235-2.445-2.578-4.23 0 0 .245.618-.013.986 0 0-.888-2.215-2.51-2.742 0 0 .27.42.212.91 0 0-.934-1.354-2.543-1.86 0 0 .222.417.09.744 0 0-1.11-1.558-2.772-1.348 0 0 .377.245.245.757 0 0-1.78-1.63-3.455-.943 0 0-.156 1.21.882 2.306 0 0-.288.003-.48-.139 0 0-.573 1.163 1.484 3.234 0 0-.285.128-.658.004 0 0 .058 1.773 2.193 3.395 0 0-.315.115-.47.056 0 0 .828 1.583 2.984 2.43 0 0-.32.183-.725.176 0 0 1.608 1.912 4.402 1.745 0 0-.147.171-.446.278 0 0 .214.144.696.278.638.241 2.754.318 2.754.318-.327.055-.811.189-1.31.343-1.281.106-2.57.405-3.165 1.122 0 0 .237-.076.576.249 0 0-2.445.235-4.23 2.578 0 0 .618-.245.986.013 0 0-2.215.888-2.742 2.51 0 0 .42-.27.91-.212 0 0-1.355.934-1.86 2.542 0 0 .417-.221.744-.089 0 0-1.559 1.11-1.349 2.772 0 0 .246-.377.758-.245 0 0-1.63 1.78-.943 3.454 0 0 1.21.157 2.306-.882 0 0 .003.288-.139.48 0 0 1.163.573 3.234-1.483 0 0 .128.284.004.658 0 0 1.773-.058 3.395-2.193 0 0 .115.314.056.47 0 0 1.583-.828 2.43-2.985 0 0 .183.32.176.726 0 0 1.912-1.608 1.745-4.403 0 0 .171.147.278.446 0 0 .575-.849.492-2.993.115.445.236.874.348 1.252.126 1.183.43 2.329 1.095 2.88 0 0-.076-.237.25-.576 0 0 .234 2.446 2.578 4.23 0 0-.246-.617.012-.985 0 0 .888 2.214 2.51 2.74 0 0-.27-.419-.211-.908 0 0 .933 1.354 2.542 1.859 0 0-.222-.416-.09-.744 0 0 1.11 1.559 2.773 1.349 0 0-.378-.246-.246-.758 0 0 1.78 1.63 3.455.943 0 0 .157-1.21-.882-2.306v.001ZM14.986 15.53C11.435 17.782 4.34 25.642 4.34 25.642c1.02-2.535 6.542-8.649 10.276-10.747C12.328 11.328 4.531 4.291 4.531 4.291c2.531 1.018 8.626 6.521 10.736 10.255 3.797-2.159 10.61-10.252 10.61-10.252-.317 1.999-6.866 8.941-10.274 10.88 2.12 3.788 10.276 10.655 10.276 10.655-2.003-.319-8.973-6.897-10.892-10.3Z"/></g><defs><linearGradient id="b" x1=".418" x2="29.531" y1=".34" y2="29.452" gradientUnits="userSpaceOnUse"><stop offset=".2" stop-color="#00FF85"/><stop offset="1" stop-color="#00E0FF"/></linearGradient><clipPath id="a"><path fill="#fff" d="M0 0h30v29.876H0z"/></clipPath></defs></svg>
